<svg t="1630467117405" class="icon" viewBox="0 0 1024 1024" version="1.1" xmlns="http://www.w3.org/2000/svg" p-id="8165" data-spm-anchor-id="a313x.7781069.0.i12" width="64" height="64"><path d="M692.419048 484.693333c-22.430476-17.554286-26.331429-49.737143-8.777143-72.167619 17.554286-22.430476 49.737143-26.331429 72.167619-8.777143 12.678095 9.752381 19.504762 24.868571 19.992381 39.497143l12.190476-15.603809c-29.257143-61.927619-75.580952-114.590476-133.12-151.161905L599.771429 347.184762c-17.554286 22.430476-49.737143 26.331429-72.167619 8.777143-22.430476-17.554286-26.331429-49.737143-8.777143-72.167619 17.554286-22.430476 49.737143-26.331429 72.167619-8.777143 12.678095 9.752381 19.504762 24.380952 19.992381 39.009524l34.133333-43.885715c-53.638095-31.695238-116.540952-50.224762-183.344762-50.224762-198.948571 0-360.350476 161.401905-360.350476 360.350477 0 198.948571 161.401905 360.350476 360.350476 360.350476s360.350476-161.401905 360.350476-360.350476c0-50.224762-10.24-98.011429-28.769524-141.409524l-28.281904 36.083809c-18.041905 22.918095-50.224762 27.306667-72.655238 9.752381z m-374.979048 96.060953c0-79.481905 64.365714-143.847619 143.847619-143.847619s143.847619 64.365714 143.847619 143.847619-64.365714 143.847619-143.847619 143.847619-143.847619-64.365714-143.847619-143.847619z m240.39619 281.35619c-2.925714 0.975238-5.851429 2.438095-8.777142 3.413334-0.975238 0.487619-1.950476 0.487619-2.925715 0.487619-3.413333 0-6.826667-1.950476-7.801904-5.36381-1.462857-4.388571 0.975238-9.264762 4.87619-10.727619 2.925714-0.975238 5.851429-1.950476 8.289524-2.925714 4.388571-1.462857 9.264762 0.487619 10.727619 4.87619 1.950476 3.413333 0 8.289524-4.388572 10.24z m164.815239-159.939047c-15.60381 37.059048-38.034286 69.729524-67.291429 97.523809-8.289524 7.801905-17.066667 15.60381-26.331429 22.430476-10.24 7.801905-20.967619 15.11619-32.182857 21.455238-1.462857 0.975238-2.925714 0.975238-3.900952 0.975238-2.925714 0-5.851429-1.462857-7.314286-4.388571-2.438095-3.900952-0.975238-9.264762 2.925714-11.215238 10.727619-5.851429 20.967619-12.678095 30.232381-19.992381 8.777143-6.339048 17.066667-13.653333 24.868572-20.967619 27.306667-26.331429 48.761905-57.051429 63.390476-92.16 1.950476-4.388571 6.826667-6.339048 10.727619-4.388571 4.87619 1.950476 6.826667 6.826667 4.876191 10.727619z" fill="#2c2c2c" p-id="8166" data-spm-anchor-id="a313x.7781069.0.i8" class="selected"></path><path d="M461.287619 637.318095c-31.207619 0-56.56381-25.35619-56.563809-56.563809 0 31.207619 25.35619 56.56381 56.563809 56.563809s56.56381-25.35619 56.56381-56.563809c0 31.207619-25.35619 56.56381-56.56381 56.563809z" fill="#0B3D6C" p-id="8167"></path><path d="M605.135238 580.754286c0-79.481905-64.365714-143.847619-143.847619-143.847619s-143.847619 64.365714-143.847619 143.847619 64.365714 143.847619 143.847619 143.847619 143.847619-64.365714 143.847619-143.847619z m-87.283809 0c0 31.207619-25.35619 56.56381-56.56381 56.563809S404.72381 611.961905 404.72381 580.754286c0-31.207619 25.35619-56.56381 56.563809-56.56381s56.56381 25.35619 56.56381 56.56381z" fill="#d81e06" p-id="8168" data-spm-anchor-id="a313x.7781069.0.i7" class=""></path><path d="M461.287619 523.702857c-31.207619 0-56.56381 25.35619-56.563809 56.56381 0 31.207619 25.35619 56.56381 56.563809 56.563809s56.56381-25.35619 56.56381-56.563809c0-30.72-25.35619-56.56381-56.56381-56.56381z" fill="#FFFFFF" p-id="8169" data-spm-anchor-id="a313x.7781069.0.i9" class=""></path><path d="M718.262857 123.367619l-1.462857-1.462857 1.462857 1.462857zM924.525714 256.487619c-1.462857-7.314286-6.339048-13.653333-12.678095-17.066667l-152.624762-79.969523c-11.215238-5.851429-24.868571-3.413333-32.670476 6.826666l-81.432381 104.350476-34.133333 43.885715c-0.487619-14.628571-7.314286-29.257143-19.992381-39.009524-22.430476-17.554286-54.613333-13.165714-72.167619 8.777143-17.554286 22.430476-13.165714 54.613333 8.777143 72.167619 22.430476 17.554286 54.613333 13.165714 72.167619-8.777143l54.613333-70.704762 63.390476-82.407619L897.219048 285.744762l-109.714286 141.409524-12.190476 15.603809c-0.487619-15.11619-6.826667-29.744762-19.992381-39.497143-22.430476-17.554286-54.613333-13.165714-72.167619 8.777143-17.554286 22.430476-13.165714 54.613333 8.777143 72.167619 22.430476 17.554286 54.613333 13.165714 72.167619-8.777143l28.281904-36.083809 126.293334-161.889524c5.36381-6.339048 7.314286-13.653333 5.851428-20.967619z" fill="#d81e06" p-id="8170" data-spm-anchor-id="a313x.7781069.0.i11" class=""></path></svg>